# xmcd
#
# Track frame offsets: 
#        150
#        14307
#        31000
#        49195
#        68525
#        88362
#        113175
#        138552
#        160747
#        181355
#        199327
#
# Disc length: 2983 seconds
#
# Revision: 11
# Processed by: cddbd v1.5.2PL0 Copyright (c) Steve Scherf et al.
# Submitted via: ExactAudioCopyFreeDBPlugin 1.0
#
DISCID=920ba50b
DTITLE=Various Artist - The Alligator Records 20th Anniversary Tour(Disc1)
DYEAR=1993
DGENRE=Blues
TTITLE0=Lil' Ed And The Blues Imperials - Killing Floor
TTITLE1=Lil' Ed And The Blues Imperials - Can't Let These Blues Go
TTITLE2=Lil' Ed And The Blues Imperials - Pride And Joy
TTITLE3=Lil' Ed And The Blues Imperials - Mean Ole Frisco
TTITLE4=Katie Webster - Two Fisted Mama
TTITLE5=Katie Webster - Pussycat Moan
TTITLE6=Katie Webster - Lord, I Wonder
TTITLE7=Elvin Bishop - Stealin' Watermelons
TTITLE8=Elvin Bishop - Beer Drinking Woman
TTITLE9=Elvin Bishop - My Dog
TTITLE10=Elvin Bishop - El-Bo
EXTD=LABEL =Alligator Records and Artist Mgmt., Inc.\nID =ALCD107/108\n
EXTD=UPC =014551-1078-28\nCOPYRIGHT =1993\n*****\n2-disc set: AD2 10
EXTD=78 YEAR: 1993
EXTT0=Lil' Ed and The Blues Imperials
EXTT1=Lil' Ed and The Blues Imperials
EXTT2=Lil' Ed and The Blues Imperials
EXTT3=Lil' Ed and The Blues Imperials
EXTT4=Katie Webster
EXTT5=Katie Webster
EXTT6=Katie Webster
EXTT7=Elvin Bishop
EXTT8=Elvin Bishop
EXTT9=Elvin Bishop
EXTT10=Elvin Bishop
PLAYORDER=
